<svg width="171" height="153" viewBox="0 0 171 153" fill="none" xmlns="http://www.w3.org/2000/svg">
<path id="Union" fill-rule="evenodd" clip-rule="evenodd" d="M0 2C0 0.89543 0.89543 0 2 0H94.7773H150.444C161.796 0 170.999 9.2031 171 20.5554V131.889C171 143.242 161.797 152.444 150.444 152.444H39.1111C27.7586 152.444 18.5556 143.242 18.5556 131.889V76.2222C18.5556 75.1176 19.451 74.2222 20.5556 74.2222C21.6601 74.2222 22.5556 75.1176 22.5556 76.2222V131.889C22.5556 141.032 29.9677 148.444 39.1111 148.444H150.444C159.588 148.444 167 141.032 167 131.889V20.5556C166.999 11.4121 159.587 4 150.444 4H96.7773V48.3889C96.7773 49.4934 95.8819 50.3889 94.7773 50.3889C93.6728 50.3889 92.7773 49.4934 92.7773 48.3889V4H2C0.89543 4 0 3.10457 0 2ZM11.2773 37.1113C10.1728 37.1113 9.27734 38.0067 9.27734 39.1113C9.27734 40.2159 10.1728 41.1113 11.2773 41.1113H57.6662C58.7708 41.1113 59.6662 40.2159 59.6662 39.1113C59.6662 38.0067 58.7708 37.1113 57.6662 37.1113H11.2773Z" fill="white"/>
</svg>
