<svg width="166" height="95" viewBox="0 0 166 95" fill="none" xmlns="http://www.w3.org/2000/svg">
<g id="Group 39">
<path id="Union" fill-rule="evenodd" clip-rule="evenodd" d="M2 0C3.10457 0 4 0.814948 4 1.82024L4 92.8321C4 93.8374 3.10457 94.6524 2 94.6524C0.895426 94.6524 -4.10176e-06 93.8374 -4.05782e-06 92.8321L0 1.82024C0 0.814948 0.895431 0 2 0ZM164 0C165.105 0 166 0.814948 166 1.82024V92.8321C166 93.8374 165.105 94.6524 164 94.6524C162.895 94.6524 162 93.8374 162 92.8321V1.82024C162 0.814948 162.895 0 164 0ZM85 1.82024C85 0.814948 84.1046 0 83 0C81.8954 0 81 0.814948 81 1.82024L81 92.8321C81 93.8374 81.8954 94.6524 83 94.6524C84.1046 94.6524 85 93.8374 85 92.8321L85 1.82024ZM10 25.4834C11.1046 25.4834 12 26.2983 12 27.3036L12 72.8096C12 73.8149 11.1046 74.6298 10 74.6298C8.89543 74.6298 8 73.8149 8 72.8096L8 27.3036C8 26.2983 8.89543 25.4834 10 25.4834ZM93 27.3036C93 26.2983 92.1046 25.4834 91 25.4834C89.8954 25.4834 89 26.2983 89 27.3036V72.8096C89 73.8149 89.8954 74.6298 91 74.6298C92.1046 74.6298 93 73.8149 93 72.8096V27.3036ZM51 25.4834C52.1046 25.4834 53 26.2983 53 27.3036L53 72.8096C53 73.8149 52.1046 74.6298 51 74.6298C49.8954 74.6298 49 73.8149 49 72.8096L49 27.3036C49 26.2983 49.8954 25.4834 51 25.4834ZM134 27.3036C134 26.2983 133.105 25.4834 132 25.4834C130.895 25.4834 130 26.2983 130 27.3036V72.8096C130 73.8149 130.895 74.6298 132 74.6298C133.105 74.6298 134 73.8149 134 72.8096V27.3036ZM18 25.4834C19.1046 25.4834 20 26.2983 20 27.3036L20 72.8096C20 73.8149 19.1046 74.6298 18 74.6298C16.8954 74.6298 16 73.8149 16 72.8096L16 27.3036C16 26.2983 16.8954 25.4834 18 25.4834ZM101 27.3036C101 26.2983 100.105 25.4834 99 25.4834C97.8954 25.4834 97 26.2983 97 27.3036V72.8096C97 73.8149 97.8954 74.6298 99 74.6298C100.105 74.6298 101 73.8149 101 72.8096V27.3036ZM59 25.4834C60.1046 25.4834 61 26.2983 61 27.3036L61 72.8096C61 73.8149 60.1046 74.6298 59 74.6298C57.8954 74.6298 57 73.8149 57 72.8096L57 27.3036C57 26.2983 57.8954 25.4834 59 25.4834ZM142 27.3036C142 26.2983 141.105 25.4834 140 25.4834C138.895 25.4834 138 26.2983 138 27.3036V72.8096C138 73.8149 138.895 74.6298 140 74.6298C141.105 74.6298 142 73.8149 142 72.8096V27.3036ZM26 25.4834C27.1046 25.4834 28 26.2983 28 27.3036L28 72.8096C28 73.8149 27.1046 74.6298 26 74.6298C24.8954 74.6298 24 73.8149 24 72.8096L24 27.3036C24 26.2983 24.8954 25.4834 26 25.4834ZM109 27.3036C109 26.2983 108.105 25.4834 107 25.4834C105.895 25.4834 105 26.2983 105 27.3036V72.8096C105 73.8149 105.895 74.6298 107 74.6298C108.105 74.6298 109 73.8149 109 72.8096V27.3036ZM67 25.4834C68.1046 25.4834 69 26.2983 69 27.3036V72.8096C69 73.8149 68.1046 74.6298 67 74.6298C65.8954 74.6298 65 73.8149 65 72.8096V27.3036C65 26.2983 65.8954 25.4834 67 25.4834ZM150 27.3036C150 26.2983 149.105 25.4834 148 25.4834C146.895 25.4834 146 26.2983 146 27.3036V72.8096C146 73.8149 146.895 74.6298 148 74.6298C149.105 74.6298 150 73.8149 150 72.8096V27.3036ZM34 25.4834C35.1046 25.4834 36 26.2983 36 27.3036L36 72.8096C36 73.8149 35.1046 74.6298 34 74.6298C32.8954 74.6298 32 73.8149 32 72.8096L32 27.3036C32 26.2983 32.8954 25.4834 34 25.4834ZM117 27.3036C117 26.2983 116.105 25.4834 115 25.4834C113.895 25.4834 113 26.2983 113 27.3036V72.8096C113 73.8149 113.895 74.6298 115 74.6298C116.105 74.6298 117 73.8149 117 72.8096V27.3036ZM75 25.4834C76.1046 25.4834 77 26.2983 77 27.3036V72.8096C77 73.8149 76.1046 74.6298 75 74.6298C73.8954 74.6298 73 73.8149 73 72.8096V27.3036C73 26.2983 73.8954 25.4834 75 25.4834ZM158 27.3036C158 26.2983 157.105 25.4834 156 25.4834C154.895 25.4834 154 26.2983 154 27.3036V72.8096C154 73.8149 154.895 74.6298 156 74.6298C157.105 74.6298 158 73.8149 158 72.8096V27.3036ZM43 13.652C44.1046 13.652 45 14.4669 45 15.4722L45 83.7311C45 84.7364 44.1046 85.5514 43 85.5514C41.8954 85.5514 41 84.7364 41 83.7311L41 15.4722C41 14.4669 41.8954 13.652 43 13.652ZM126 15.4722C126 14.4669 125.105 13.652 124 13.652C122.895 13.652 122 14.4669 122 15.4722V83.7311C122 84.7364 122.895 85.5514 124 85.5514C125.105 85.5514 126 84.7364 126 83.7311V15.4722Z" fill="white"/>
</g>
</svg>
