<svg width="136" height="136" viewBox="0 0 136 136" fill="none" xmlns="http://www.w3.org/2000/svg">
<g id="Group 42">
<path id="Vector (Stroke)" fill-rule="evenodd" clip-rule="evenodd" d="M57.3436 58.8075C58.1246 59.5885 58.1246 60.8548 57.3436 61.6359L8.14071 110.839L8.14066 110.839C3.48704 115.492 3.48689 123.037 8.14067 127.691C12.7943 132.345 20.3396 132.345 24.9934 127.691C24.9934 127.691 24.9934 127.691 24.9934 127.691L74.1961 78.4884C74.9771 77.7074 76.2435 77.7074 77.0245 78.4884C77.8056 79.2695 77.8056 80.5358 77.0245 81.3168L27.8218 130.52L27.8218 130.52C21.6059 136.735 11.5281 136.735 5.31232 130.52L5.31224 130.52C-0.903508 124.304 -0.903638 114.226 5.31233 108.011L54.5151 58.8075C55.2962 58.0264 56.5625 58.0264 57.3436 58.8075Z" fill="white"/>
<path id="Vector (Stroke)_2" fill-rule="evenodd" clip-rule="evenodd" d="M86.8884 4.46235C78.5823 5.6692 70.4016 9.21016 64.7176 14.8943L64.7176 14.8943C53.3408 26.2707 52.107 45.006 57.7848 59.4929C58.1878 60.5213 57.6809 61.6818 56.6525 62.0848C55.6241 62.4879 54.4636 61.9809 54.0606 60.9525C47.9952 45.4766 49.057 24.8976 61.8891 12.0659C68.3091 5.64582 77.3493 1.80635 86.3133 0.50392C95.2555 -0.795356 104.417 0.389922 111.075 4.38465C111.603 4.70151 111.956 5.24401 112.031 5.85527C112.106 6.46653 111.896 7.07838 111.46 7.51386L90.8141 28.1598L89.1302 46.6964L107.667 45.0125L128.313 24.3665C128.748 23.931 129.36 23.7205 129.971 23.7957C130.583 23.871 131.125 24.2236 131.442 24.7517C135.437 31.4096 136.622 40.5712 135.323 49.5135C134.02 58.4776 130.181 67.518 123.76 73.9379C110.929 86.7696 90.3496 87.8318 74.8737 81.7658C73.8454 81.3627 73.3385 80.2022 73.7415 79.1738C74.1446 78.1454 75.3051 77.6385 76.3335 78.0416C90.8202 83.7199 109.556 82.4858 120.932 71.1095L122.346 72.5237L120.932 71.1094C126.616 65.4254 130.158 57.2446 131.364 48.9384C132.418 41.688 131.662 34.5664 129.215 29.1212L109.983 48.353C109.652 48.6839 109.216 48.8883 108.75 48.9306L87.1023 50.8971C86.5112 50.9508 85.9268 50.7392 85.5071 50.3195C85.0875 49.8998 84.8759 49.3154 84.9295 48.7244L86.896 27.0767C86.9383 26.6107 87.1427 26.1743 87.4736 25.8434L106.705 6.61177C101.26 4.16442 94.1387 3.40891 86.8884 4.46235Z" fill="white"/>
</g>
</svg>
