<svg width="149" height="169" viewBox="0 0 149 169" fill="none" xmlns="http://www.w3.org/2000/svg">
<path id="Union" fill-rule="evenodd" clip-rule="evenodd" d="M8.87547 41.079L72.4922 4.72323V44.3932L8.87547 41.079ZM112.402 102.784L77.9935 48.2897L143.37 44.8842L112.402 102.784ZM76.4922 44.3929L140.123 41.0783L76.4922 4.71446V44.3929ZM145.715 39.6932L77.7813 0.870462C75.751 -0.290024 73.249 -0.290099 71.2187 0.870292L3.28509 39.6931C1.25387 40.8539 0 43.001 0 45.3274V122.973C0 125.299 1.25391 127.446 3.28494 128.607L71.2184 167.43C71.7235 167.719 72.2578 167.936 72.8067 168.081C73.1736 168.653 73.8099 169 74.494 169C75.1766 169 75.8116 168.655 76.1789 168.085C76.7328 167.939 77.272 167.721 77.7815 167.43L145.715 128.607C147.745 127.447 149 125.299 149 122.973V45.3274C149 43.0009 147.746 40.8538 145.715 39.6932ZM80.4462 161.326L142.832 125.674L113.235 109.398L80.4462 161.326ZM108.933 108.735H40.0553L74.494 163.277L108.933 108.735ZM35.7528 109.397L6.161 125.67L68.5351 161.316L35.7528 109.397ZM115.233 105.959L145 122.328V50.3028L115.233 105.959ZM4 50.3297V122.32L33.7531 105.959L4 50.3297ZM70.9942 48.2902L36.5846 102.786L5.61601 44.8842L70.9942 48.2902ZM108.933 104.766L74.494 50.2234L40.0548 104.766H108.933Z" fill="white"/>
</svg>
